<?xml version="1.0" standalone="no"?>
<!DOCTYPE svg PUBLIC "-//W3C//DTD SVG 1.1//EN" "http://www.w3.org/Graphics/SVG/1.1/DTD/svg11.dtd" >
<svg xmlns="http://www.w3.org/2000/svg">
<metadata>
Created by FontForge 20120731 at Fri Feb 10 17:20:41 2017
 By admin
</metadata>
<defs>
<font id="iconfont" horiz-adv-x="1024" >
  <font-face 
    font-family="iconfont"
    font-weight="500"
    font-stretch="normal"
    units-per-em="1024"
    panose-1="2 0 6 3 0 0 0 0 0 0"
    ascent="896"
    descent="-128"
    x-height="792"
    bbox="0 -128 1380 896"
    underline-thickness="0"
    underline-position="0"
    unicode-range="U+0078-E77C"
  />
<missing-glyph 
 />
    <glyph glyph-name=".notdef" 
 />
    <glyph glyph-name=".notdef" 
 />
    <glyph glyph-name=".null" horiz-adv-x="0" 
 />
    <glyph glyph-name="nonmarkingreturn" horiz-adv-x="341" 
 />
    <glyph glyph-name="x" unicode="x" horiz-adv-x="1001" 
d="M281 543q-27 -1 -53 -1h-83q-18 0 -36.5 -6t-32.5 -18.5t-23 -32t-9 -45.5v-76h912v41q0 16 -0.5 30t-0.5 18q0 13 -5 29t-17 29.5t-31.5 22.5t-49.5 9h-133v-97h-438v97zM955 310v-52q0 -23 0.5 -52t0.5 -58t-10.5 -47.5t-26 -30t-33 -16t-31.5 -4.5q-14 -1 -29.5 -0.5
t-29.5 0.5h-32l-45 128h-439l-44 -128h-29h-34q-20 0 -45 1q-25 0 -41 9.5t-25.5 23t-13.5 29.5t-4 30v167h911zM163 247q-12 0 -21 -8.5t-9 -21.5t9 -21.5t21 -8.5q13 0 22 8.5t9 21.5t-9 21.5t-22 8.5zM316 123q-8 -26 -14 -48q-5 -19 -10.5 -37t-7.5 -25t-3 -15t1 -14.5
t9.5 -10.5t21.5 -4h37h67h81h80h64h36q23 0 34 12t2 38q-5 13 -9.5 30.5t-9.5 34.5q-5 19 -11 39h-368zM336 498v228q0 11 2.5 23t10 21.5t20.5 15.5t34 6h188q31 0 51.5 -14.5t20.5 -52.5v-227h-327z" />
    <glyph glyph-name="shezhi" unicode="&#xe600;" 
d="M1017 290q2 -12 -1 -29.5t-10.5 -35.5t-17.5 -32.5t-22.5 -20.5t-21.5 -6t-20 4q-11 3 -26 5.5t-31 1t-32 -6.5t-27 -17q-25 -26 -29 -59t9 -62q11 -21 -3 -41q-6 -8 -19 -17t-29 -16t-33.5 -11t-30.5 -4q-9 0 -17.5 7t-11.5 15h-1q-11 32 -38 55t-63 23q-35 0 -63 -23
t-40 -54q-5 -12 -15 -17.5t-23 -5.5q-14 0 -32 5t-36 12.5t-32 18t-21 20.5q-6 7 -6.5 17t8.5 27q11 24 8.5 54t-26.5 56q-14 15 -34.5 19.5t-39.5 3.5q-21 -1 -44 -8q-14 -4 -28 2q-12 4 -21.5 19t-17 33t-12 37t-1.5 31q3 22 20 28q31 13 55.5 41t24.5 63q0 36 -24.5 62.5
t-55.5 38.5q-9 3 -15 15t-6 24q0 13 4 29.5t10.5 32t15 28.5t19.5 19q8 5 15.5 4t16.5 -4q31 -13 64.5 -8t58.5 29q13 13 18.5 30.5t7 35t0 32t-2.5 20.5q-2 6 -3.5 14.5t1.5 14.5q6 14 22 24.5t34.5 18t35.5 11t28 3.5q13 0 20.5 -8.5t10.5 -18.5q12 -27 37.5 -48t60.5 -21
t63 20t39 50q4 9 13 17.5t18 8.5q14 0 31 -4t33.5 -11.5t30 -18.5t21.5 -24q6 -9 4 -18.5t-5 -13.5q-13 -30 -8 -62.5t30 -57t60.5 -27.5t66.5 12q8 5 20 4t20 -9q15 -15 27 -44t16 -59q2 -17 -5.5 -27t-16.5 -13q-31 -11 -53.5 -39t-22.5 -64q0 -35 18.5 -61t49.5 -37
q7 -5 12 -9q12 -9 16 -23zM541 198q46 0 87 17t71 48t47.5 71.5t17.5 86.5t-17.5 86.5t-47.5 70.5t-71 47.5t-87 17.5t-86.5 -17.5t-71 -47.5t-48 -70.5t-17.5 -86.5t17.5 -86.5t48 -71.5t71 -48t86.5 -17z" />
    <glyph glyph-name="user" unicode="&#xe604;" 
d="M510.5 378q85.5 0 146 60.5t60.5 146t-60.5 146t-146 60.5t-146 -60.5t-60.5 -146t60.5 -146t146 -60.5zM549 275h-80q-44 0 -111.5 -16.5t-133.5 -43.5t-113 -66.5t-47 -80.5q0 -18 3 -33t10 -25t14 -17.5t21.5 -12t24.5 -7t29.5 -3t31 -0.5h35.5h37h482h36.5h35.5
t31.5 0.5t29.5 3t24 7t21 12t14.5 17.5t10.5 25t3 33q0 41 -47.5 80.5t-114.5 66.5t-135 43.5t-112 16.5z" />
    <glyph glyph-name="xiaoxi" unicode="&#xe613;" horiz-adv-x="1028" 
d="M278 -48l2 213q-107 23 -175 108t-68 195v41q0 128 91 219t220 91h332q129 0 220 -91t91 -219v-41q0 -128 -91 -219.5t-220 -91.5h-159zM348 778q-112 0 -190.5 -79t-78.5 -190v-41q0 -99 63.5 -174t161.5 -91l17 -3l1 -18l-1 -139l185 156h174q111 0 190 79t79 190v41
q0 111 -79 190t-190 79h-332zM343 477.5q0 12.5 8.5 21.5t20.5 9q13 0 21 -9t8 -21q0 -14 -8 -22t-21 -8q-13 1 -21 9t-8 20.5zM372 427h-1q-21 1 -34.5 15t-13.5 36q0 21 14.5 35.5t34.5 14.5q21 0 35.5 -14.5t14.5 -36t-14 -36t-36 -14.5zM372 487q-8 0 -8 -9t8 -9
q9 0 9 9t-9 9zM499 477.5q0 12.5 8 21.5t20 9q13 0 21.5 -9t8.5 -21q0 -14 -8.5 -22t-21.5 -8q-13 1 -20.5 9t-7.5 20.5zM527 427h-1q-21 1 -34.5 15t-13.5 36q0 21 14.5 35.5t34.5 14.5q21 0 35.5 -14.5t14.5 -36t-14 -36t-36 -14.5zM527 487q-8 0 -8 -9t9 -9q8 0 8 9t-9 9
zM654 477.5q0 12.5 8 21.5t20 9q13 0 21.5 -9t8.5 -21q0 -14 -8.5 -22t-21.5 -8q-13 1 -20.5 9t-7.5 20.5zM682 427v0q-22 1 -35.5 15t-13.5 36q0 21 14.5 35.5t34.5 14.5q22 0 36.5 -14.5t14.5 -36t-14.5 -36t-36.5 -14.5zM682 487q-7 0 -7 -9t8 -9t8 9t-9 9z" />
    <glyph glyph-name="icon09" unicode="&#xe60b;" 
d="M304 731h165q21 -32 77 -121t87 -137q28 44 82 130.5t81 127.5h164v-17l-2 16q-40 -55 -115 -156t-104 -141q8 -1 49 -0.5t49 0.5q4 -12 4.5 -26.5t-0.5 -32t0 -27.5h-78h-78q-2 -22 0 -48h78h78q1 -38 0 -85q-24 -1 -78.5 -0.5t-78.5 -0.5v-61.5v-61.5h-103
q-1 19 -0.5 62t-0.5 61q-22 1 -82 0.5t-82 0.5q-1 48 0 85h82h82q1 28 0 48h-82t-82 1q-1 48 0 84q20 1 55 0.5t55 0.5q-82 110 -222 298zM254 290q146 -108 171 -127q-16 -12 -77 -56.5t-93 -69.5h-1v32v33q-19 1 -95 0.5t-95 -0.5v123q18 0 95 -0.5t95 0.5v32v33z" />
    <glyph glyph-name="iconfontcolor20" unicode="&#xe66d;" 
d="M1003 450l-141 116q-21 17 -35.5 10t-14.5 -33v-72h-59v361q0 27 -19 45.5t-45 18.5h-624q-22 0 -39 -13.5t-23 -33.5h-2v-906l395 -71v64h293q26 0 45 18.5t19 45.5v349h59v-72q0 -26 14.5 -33t35.5 10l141 115q20 17 20 41t-20 40zM705 48q0 -27 -19 -45.5t-45 -18.5
h-245v794l-321 58q17 12 38 12h528q26 0 45 -18.5t19 -45.5v-313h-142q-13 0 -22.5 -9.5t-9.5 -22.5v-58q0 -13 9.5 -22.5t22.5 -9.5h142v-301v0z" />
    <glyph glyph-name="xiaoxi1" unicode="&#xe649;" 
d="M512 0h-85l-235 -128v235q-90 63 -141 150.5t-51 190.5q0 91 40.5 174t109 143t163.5 95.5t199 35.5t199 -35.5t163.5 -95.5t109 -143t40.5 -174t-40.5 -174t-109 -143t-163.5 -95.5t-199 -35.5v0v0zM512 832q-122 0 -225 -51.5t-163 -140t-60 -192.5q0 -96 52 -181.5
t140 -138.5v-142l171 78h85q122 0 225 51.5t163 140t60 192.5t-60 192.5t-163 140t-225 51.5v0zM768 384q-27 0 -45.5 19t-18.5 45.5t18.5 45t45.5 18.5t45.5 -18.5t18.5 -45t-18.5 -45.5t-45.5 -19v0zM512 384q-27 0 -45.5 19t-18.5 45.5t18.5 45t45.5 18.5t45.5 -18.5
t18.5 -45t-18.5 -45.5t-45.5 -19v0zM256 384q-27 0 -45.5 19t-18.5 45.5t18.5 45t45.5 18.5t45.5 -18.5t18.5 -45.5t-18.5 -45.5t-45.5 -18.5v0z" />
    <glyph glyph-name="icon03" unicode="&#xe601;" 
d="M498 830q-17 8 -30 -6q-247 -255 -262 -271h-114q-11 0 -19.5 -9.5t-8.5 -22.5v-327q0 -13 8.5 -22.5t19.5 -9.5h116q6 -5 71.5 -61t128 -109l62.5 -53q14 -11 29.5 -2.5t15.5 28.5v836q0 21 -17 29zM459 28q-62 52 -225 191v0q-7 7 -17 7h-97v264h97q11 0 19 8
q158 164 223 231v-701zM620 708q-11 5 -22 0.5t-15.5 -16.5t0 -24.5t14.5 -17.5q47 -22 77 -98t30 -169.5t-30 -169t-77 -97.5q-10 -6 -14.5 -18t0 -24t15.5 -17t22 0q63 31 101.5 121t38.5 205t-38.5 205t-101.5 120zM771 828q-10 6 -21 1t-15.5 -17t-0.5 -24.5t15 -17.5
q68 -33 112.5 -142.5t44.5 -244.5t-44.5 -244.5t-112.5 -143.5q-11 -5 -15 -17t0.5 -24t15.5 -17t21 0q84 41 137.5 165.5t53.5 280.5t-53.5 280t-137.5 165z" />
    <glyph glyph-name="caiwubaobiao" unicode="&#xe6e3;" 
d="M708 112h-398q-6 0 -10 -4t-4 -9t4 -8.5t10 -3.5h398q6 0 9.5 3.5t3.5 8.5t-3.5 9t-9.5 4zM708 216h-398q-6 0 -10 -3.5t-4 -9t4 -9t10 -3.5h398q6 0 9.5 3.5t3.5 9t-3.5 9t-9.5 3.5zM708 319h-398q-6 0 -10 -4t-4 -9t4 -8.5t10 -3.5h398q6 0 9.5 3.5t3.5 9t-3.5 9
t-9.5 3.5zM310 398h159q6 0 10 3.5t4 9t-4 9t-10 3.5h-159q-6 0 -10 -3.5t-4 -9t4 -9t10 -3.5zM310 490h159q6 0 10 4t4 9t-4 8.5t-10 3.5h-159q-6 0 -10 -3.5t-4 -8.5t4 -9t10 -4zM310 593h159q6 0 10 4t4 9t-4 8.5t-10 3.5h-159q-6 0 -10 -3.5t-4 -8.5t4 -9t10 -4z
M884 694l-141 129q-10 9 -24 9h-559q-14 0 -23.5 -9t-9.5 -22v-834q0 -13 9.5 -22t23.5 -9h700q14 0 24 9t10 22v705q0 13 -10 22zM194 -1v770h505v-97q0 -8 6 -13.5t14 -5.5h108v-654h-633v0zM583.5 507.5q7.5 -5.5 17.5 -9.5q8 -4 18 -8l-1 -48q-11 3 -18 9q-3 3 -6.5 5
t-8.5 3q-16 0 -16 -13q0 -7 4.5 -12t12 -9t15.5 -6.5t16 -4.5v-12q0 -5 3.5 -7.5t8 -2.5t8 2.5t3.5 7.5v11q25 2 39.5 14.5t14.5 34.5q0 11 -4.5 19.5t-12 14.5t-16.5 9.5t-18 7.5l2 47q4 -1 7 -3q4 -3 5 -4q3 -2 6.5 -4t8.5 -2q8 0 11.5 4t3.5 10q0 3 -3 7.5t-8 8.5t-13 8
q-7 3 -18 5l1 14q0 5 -4 8t-8 3t-7.5 -3t-3.5 -8l-1 -12q-26 -2 -40.5 -15.5t-14.5 -35.5q0 -11 4.5 -19.5t12 -14zM642 481q8 -4 12.5 -9t4.5 -12q0 -9 -5 -13.5t-13 -6.5zM607.5 556.5q5.5 5.5 13.5 6.5l-1 -41q-8 3 -13 8t-5 13t5.5 13.5z" />
    <glyph glyph-name="rizhi" unicode="&#xe64a;" 
d="M346.5 585q13.5 0 23.5 10t10 23v133q0 14 -10 24t-23.5 10t-23.5 -10t-10 -24v-133q0 -13 10 -23t23.5 -10zM512.5 585q13.5 0 23.5 10t10 23v133q0 14 -10 24t-23.5 10t-23.5 -10t-10 -24v-133q0 -13 10 -23t23.5 -10zM413 721h33v-67h-33v67zM579 721h33v-67h-33v67z
M911 85v540q0 41 -29 70t-70 29h-67v-66h67q13 0 23 -9.5t10 -23.5v-540q0 -14 -10 -23.5t-23 -9.5h-599q-13 0 -23 9.5t-10 23.5v0v540q0 13 10 23t23 10h67v66h-67q-41 0 -70 -29t-29 -70v-540q0 -42 29 -71t70 -29h599q40 0 68.5 27.5t30.5 67.5v0.5v0.5v3v0.5v0.5v0v0z
M679 585q14 0 23.5 10t9.5 23v133q0 14 -9.5 24t-23.5 10t-23.5 -10t-9.5 -24v-133q0 -13 9.5 -23t23.5 -10zM313 452h398q14 0 24 9.5t10 23.5t-10 23.5t-24 9.5h-398q-14 0 -24 -9.5t-10 -23.5t10 -23.5t24 -9.5zM711 354h-398q-14 0 -24 -9.5t-10 -23.5t10 -23.5t24 -9.5
h398q14 0 24 9.5t10 23.5t-10 23.5t-24 9.5zM711 184h-398q-14 0 -24 -10t-10 -23.5t10 -23.5t24 -10h398q14 0 24 10t10 23.5t-10 23.5t-24 10z" />
    <glyph glyph-name="rizhi1" unicode="&#xe61d;" 
d="M845 768h-615v-102h-74q-11 0 -19.5 -7t-8.5 -17v-51q0 -11 8.5 -19t19.5 -8h74v-52h-74q-11 0 -19.5 -6.5t-8.5 -17.5v-51q0 -10 8.5 -18.5t19.5 -8.5h74v-51h-74q-11 0 -19.5 -6.5t-8.5 -17.5v-51q0 -10 8.5 -18.5t19.5 -8.5h74v-51h-74q-11 0 -19.5 -7t-8.5 -17v-51
q0 -10 8.5 -18.5t19.5 -8.5h74v-102h615q21 0 35 15.5t14 37.5v663q0 21 -14 35.5t-35 14.5zM384 53h-103v51h28q10 0 16.5 8t6.5 19v51q0 11 -6.5 17.5t-16.5 6.5h-28v51h28q10 0 16.5 8t6.5 19v51q0 11 -6.5 17.5t-16.5 6.5h-28v51h28q10 0 16.5 8.5t6.5 18.5v51
q0 11 -6.5 17.5t-16.5 6.5h-28v52h28q10 0 16.5 8t6.5 19v51q0 10 -6.5 17t-16.5 7h-28v51h103v-664v0z" />
    <glyph glyph-name="iconfont-table" unicode="&#xe602;" 
d="M329 110v109q0 8 -5 13.5t-13 5.5h-183q-8 0 -13 -5.5t-5 -13.5v-109q0 -8 5 -13.5t13 -5.5h183q8 0 13 5.5t5 13.5zM329 329v110q0 8 -5 13t-13 5h-183q-8 0 -13 -5t-5 -13v-110q0 -8 5 -13t13 -5h183q8 0 13 5t5 13zM622 110v109q0 8 -5.5 13.5t-13.5 5.5h-182
q-8 0 -13.5 -5.5t-5.5 -13.5v-109q0 -8 5.5 -13.5t13.5 -5.5h182q8 0 13.5 5.5t5.5 13.5zM329 549v109q0 8 -5 13.5t-13 5.5h-183q-8 0 -13 -5.5t-5 -13.5v-109q0 -8 5 -13.5t13 -5.5h183q8 0 13 5.5t5 13.5zM622 329v110q0 8 -5.5 13t-13.5 5h-182q-8 0 -13.5 -5t-5.5 -13
v-110q0 -8 5.5 -13t13.5 -5h182q8 0 13.5 5t5.5 13zM914 110v109q0 8 -5 13.5t-13 5.5h-183q-8 0 -13 -5.5t-5 -13.5v-109q0 -8 5 -13.5t13 -5.5h183q8 0 13 5.5t5 13.5zM622 549v109q0 8 -5.5 13.5t-13.5 5.5h-182q-8 0 -13.5 -5.5t-5.5 -13.5v-109q0 -8 5.5 -13.5
t13.5 -5.5h182q8 0 13.5 5.5t5.5 13.5zM914 329v110q0 8 -5 13t-13 5h-183q-8 0 -13 -5t-5 -13v-110q0 -8 5 -13t13 -5h183q8 0 13 5t5 13zM914 549v109q0 8 -5 13.5t-13 5.5h-183q-8 0 -13 -5.5t-5 -13.5v-109q0 -8 5 -13.5t13 -5.5h183q8 0 13 5.5t5 13.5zM987 731v-621
q0 -38 -26.5 -65t-64.5 -27h-768q-38 0 -64.5 27t-26.5 65v621q0 38 26.5 65t64.5 27h768q38 0 64.5 -27t26.5 -65z" />
    <glyph glyph-name="yonghuzonghetongji" unicode="&#xe61c;" 
d="M133 27q0 -11 6.5 -18.5t16.5 -7.5h99q10 0 17 7.5t7 18.5v267l-146 -95v-172v0zM338 333v-306q0 -11 7.5 -18.5t16.5 -7.5h99q10 0 17 7.5t7 18.5v318l-67 40zM546 308l-1 1v-282q0 -11 7 -18.5t17 -7.5h98q10 0 17 7.5t7 18.5v413v4zM751 500v-473q0 -11 7 -18.5
t17 -7.5h98q10 0 17 7.5t7 18.5v481l-59 74zM880 745l-94 -7h-6t-11 -1t-10.5 -4t-1.5 -8l49 -49l-260 -217l-90 68q-12 9 -25 1l-292 -198q-7 -5 -9 -14t3 -16q7 -10 18 -10q7 0 13 4l278 189l91 -69q14 -11 28 0l276 231l39 -44q8 -6 12.5 -4t6.5 8l2 6v115q0 13 -17 19z
M139 510h191q7 0 6 7q-1 27 -15 46q-9 11 -33 18.5t-32 17.5q-2 3 -1 13q0 3 2 5q22 20 22 53q0 34 -9.5 52t-35.5 18q-28 0 -37 -18.5t-9 -52.5q0 -32 22 -52q2 -2 2 -5q0 -10 -2 -13q-7 -10 -30.5 -17t-32.5 -19q-13 -19 -14 -46q-1 -7 6 -7z" />
    <glyph glyph-name="yonghuguanli" unicode="&#xe77b;" 
d="M960 121v91q-60 12 -61 16q-1 7 -3 13q2 4 6.5 9.5t10.5 11t11 10.5t9 8l3 3l-67 90q-44 -36 -55 -41q-7 3 -16 5q-3 1 -8.5 15.5t-9.5 29.5l-4 14l-91 1q-10 -56 -25 -60q-7 -2 -15 -5q-5 2 -18.5 12.5t-24.5 19.5l-12 10l-67 -92q34 -34 36 -46q-2 -5 -4 -11l-56 -13
v-91q48 -10 57 -18q3 -8 7 -15q-3 -4 -8.5 -9.5t-11 -10t-10.5 -8.5t-8 -7l-3 -2l70 -91q55 35 64 37q7 -3 13 -5q4 -1 7.5 -15.5t5 -27t1.5 -13.5h91q4 52 10 54q10 3 20 7q3 -1 14 -11t20 -19l9 -9l90 92q-33 23 -42 35l6 16q2 4 16.5 9t28.5 8l14 3v0v0zM728 52
q-47 0 -80.5 33.5t-33.5 81.5t33.5 81.5t81 33.5t81 -33.5t33.5 -81.5t-33.5 -81.5t-81.5 -33.5v0v0zM436 401q79 0 145 65.5t66 146.5q0 82 -64 150.5t-142 68.5t-143 -70t-65 -152q0 -81 62.5 -145t140.5 -64v0v0zM482 356q-5 1 -15 1.5t-38.5 0t-55.5 -4t-62 -14
t-63 -26.5q-69 -40 -115.5 -101t-68.5 -128q-9 -29 102.5 -45t266.5 -16q18 0 26 5.5t8 17.5t-3 25t-7 33t-4 37q0 40 12.5 79t26 62t23 41t3 25.5t-35.5 7.5v0v0zM482 356z" />
    <glyph glyph-name="dailishang" unicode="&#xe63f;" 
d="M499 205q9 -9 26 0l153 83q14 6 12.5 20t-12.5 25l-153 64h-19l-154 -64q-14 -5 -14 -20t14 -25zM499 141v0h7h6v0l166 89q13 13 7 26q-13 13 -26 6l-147 -89l-154 89q-5 4 -12.5 2t-12.5 -8q-4 -6 -1.5 -13t7.5 -13zM666 198l-154 -89l-154 83q-5 4 -12.5 1.5
t-12.5 -7.5q-4 -6 -1.5 -13t7.5 -13l160 -90v0h7h6v0l166 90q13 13 7 26q0 9 -7.5 13.5t-11.5 -1.5zM525 685q-5 5 -13 5t-13 -5l-89 -83q-5 -5 -5 -13t4.5 -13t12.5 -5t13 5l51 51v-153q5 -9 7.5 -13t7.5 -8.5t11 -4.5q19 0 19 19v154l51 -51q5 -5 13 -5t13 4.5t5 12.5
t-5 13zM269 256h-154l51 51q5 5 5 13t-4.5 13t-12.5 5t-13 -5l-83 -83v-7q-7 -6 -7 -13q0 -12 7 -12l83 -84q5 -4 13 -4t12.5 4.5t4.5 12.5t-5 13l-51 51h154q19 0 19 19q0 9 -7 17.5t-12 8.5zM973 250l-83 83q-5 5 -13 5t-13 -5t-5 -13t5 -13l51 -51h-153q-20 0 -20 -19
t20 -19h153l-51 -52q-5 -4 -5 -12t5 -13t13 -5t13 5l83 83q6 6 6 12.5t-6 13.5z" />
    <glyph glyph-name="caiwubaobiao1" unicode="&#xe603;" 
d="M198 21q-32 0 -54 23t-22 56v706h605q31 0 53.5 -23t22.5 -56v-270h42v270q0 51 -34.5 86.5t-83.5 35.5h-647v-749q0 -50 34.5 -85.5t83.5 -35.5h475v42h-475v0zM716 509q8 0 14.5 6.5t6.5 15t-6.5 15t-14.5 6.5h-487q-9 0 -15 -6.5t-6 -15t6 -15t15 -6.5h487zM563 384
q9 0 15 6t6 15t-6 15t-15 6h-332q-8 0 -14.5 -6t-6.5 -15t6.5 -15t14.5 -6h332zM519 260q9 0 15 6t6 15t-6 15t-15 6h-288q-8 0 -14.5 -6t-6.5 -15t6.5 -15t14.5 -6h288zM484 125q9 0 15.5 6t6.5 15t-6.5 15t-15.5 6h-253q-8 0 -14.5 -6t-6.5 -15t6.5 -15t14.5 -6h253z
M718 636q9 0 15 6.5t6 15t-6 15t-15 6.5h-486q-9 0 -15.5 -6.5t-6.5 -15t6.5 -15t15.5 -6.5h486zM922 408l-113 -193h105v-44h-106v-46h106v-39h-106v-108h-45v108h-106v39h106v46h-106v44h104l-106 193h54l79 -157h1q2 4 7 13t8 15l58 129h60z" />
    <glyph glyph-name="xiugaimima" unicode="&#xe6cc;" 
d="M302 629q6 41 31 80q53 80 162 80q123 0 177 -62q13 -16 21.5 -35t12 -34t4 -30.5t0.5 -21.5t-1 -9q-1 -8 4 -15t13.5 -8t15.5 4t8 13q0 5 1 12t0 26.5t-5 38t-15 42.5t-28 43q-66 77 -208 77q-131 0 -196 -99q-32 -49 -38 -98v-3v-98h41v97zM520 369h-2
q-39 0 -66.5 -27.5t-27.5 -66.5t27.5 -66.5t66.5 -27.5t66.5 28.5t26.5 67.5q0 38 -26.5 64.5t-64.5 27.5zM261 532h-46q-32 0 -54.5 -22.5t-22.5 -54.5v-439q0 -32 22.5 -54.5t54.5 -22.5h592q32 0 54.5 22.5t22.5 54.5v439q0 32 -22.5 54.5t-54.5 22.5h-505h-41zM544 144
l-6 -1v-95q0 -8 -5.5 -14t-13.5 -6h-1q-9 0 -14.5 5.5t-5.5 14.5v95l-7 1q-47 10 -77 47t-30 84q0 55 39 94.5t94.5 39.5t94.5 -39.5t39 -94.5q0 -47 -30 -84t-77 -47z" />
    <glyph glyph-name="shoujibangding01" unicode="&#xe6f0;" 
d="M782 845h-540q-28 0 -48 -20t-20 -49v-785q0 -29 20 -49t48 -20h540q28 0 48 20t20 49v785q0 29 -20 49t-48 20v0zM529 -43q-21 0 -36 15t-15 36.5t15 36t36.5 14.5t36.5 -14.5t15 -36.5q-1 -21 -16 -36t-36 -15v0zM782 197q0 -29 -20 -49t-47 -20h-406q-27 0 -47 20
t-20 49v512q0 28 20 48t47 20h406q27 0 47 -20t20 -48v-512zM493.5 562.5q9.5 -4.5 19.5 -1.5t15 12l18 32q8 17 26 20t33 -5q16 -8 23 -26q6 -16 -3 -34l-55 -101q-25 -48 -56 -31q-9 5 -19 1.5t-16 -12.5q-5 -9 -1.5 -19.5t12.5 -14.5q33 -16 63 -6q38 13 62 59l55 102
q18 34 7 72q-13 39 -48 56q-38 18 -74.5 8t-53.5 -44l-18 -32q-4 -11 -1.5 -21t12 -14.5zM395 225q35 -16 75 -5q39 14 57 48l14 26q4 9 1 19t-13 15q-9 4 -19 1t-15 -13l-14 -26q-9 -17 -27 -23t-35 2q-18 8 -23 26q-6 18 3 34l51 95q27 52 59 37q9 -5 19 -1.5t16 12.5
q4 9 1 19t-13 15q-35 17 -70 1t-58 -61l-50 -93q-18 -34 -7 -72q13 -39 48 -56z" />
    <glyph glyph-name="liuliangyunpingtaitubiao03" unicode="&#xe689;" 
d="M888 99q-9 4 -14 5q-2 -24 -6 -39q-2 -21 -12 -20q-8 -2 -16 18q-13 23 -19 84l92 10l-4 48l-91 -11q-1 14 -3 45q-2 27 -2 39h-49q1 -40 6 -90l-53 -6l6 -48l51 6q7 -75 24 -104q22 -39 62 -39q36 -1 47 43q4 25 7 39q1 8 2 11q-6 2 -28 9zM867 204l33 33q-22 19 -47 38
l-31 -30q31 -26 45 -41zM686 278q-21 -72 -59 -125q1 -8 5 -29q2 -21 4 -33q14 17 28 36v-129h47v207q12 27 24 58zM409 466q0 -25 17.5 -43t43 -18t43.5 18t18 43.5t-18 43t-43.5 17.5t-43 -17.5t-17.5 -43.5v0zM775 357q33 0 64 -9v308q0 39 -27.5 66.5t-66.5 27.5h-462
q-39 0 -66 -27.5t-27 -66.5v-545q0 -39 27 -66t66 -27h304l3 4q-34 53 -34 116q0 91 64 155t155 64zM497 301h-53q-7 26 -20.5 42t-27.5 19.5t-27.5 3.5t-21.5 -3l-8 -3l-28 46q20 19 27 38.5t3.5 33.5t-10.5 25t-13.5 16.5l-6.5 5.5q1 1 27 46q28 -7 47 -3.5t30.5 14
t18 21.5t8.5 20l3 9h52q5 -25 17.5 -40t27.5 -19.5t29 -5.5t23 2l10 2q-1 -1 26 -45q-20 -17 -27 -36t-3.5 -33.5t10 -26.5t13.5 -18l6 -6q0 -1 -26 -44q-26 6 -45 3t-31 -13.5t-18.5 -22t-8.5 -19.5z" />
    <glyph glyph-name="goumaishiwuqia" unicode="&#xe615;" horiz-adv-x="1381" 
d="M1075 649h-1016q-24 0 -41.5 -17t-17.5 -41v-661q0 -24 17.5 -41t41.5 -17h1016q25 0 42 17t17 41v661q0 24 -17 41t-42 17zM1077 -70q0 -1 -2 -1l-1017 1v151h1019v-151v0zM1077 179h-1019l1 414l1018 -2v-412zM271 460h-108v-57h108v57zM546 460h-217v-57h217v57v0z
M1321 896h-1016q-24 0 -41.5 -17t-17.5 -41v-151h59v152l1017 -1v-661q0 -2 -1 -2h-149v-56h149q24 0 41.5 17t17.5 41v661q0 24 -17.5 41t-41.5 17z" />
    <glyph glyph-name="goumaidianziqia" unicode="&#xe616;" horiz-adv-x="1171" 
d="M1110 896h-467v-60h467v-404h60v404q0 25 -17.5 42.5t-42.5 17.5zM0 836v-404h60v404h467v60h-467q-25 0 -42.5 -17.5t-17.5 -42.5v0zM60 336h-60v-425q0 -23 16 -31t44 -8h467v60h-467v404zM1110 -68h-467v-60h467q25 0 42.5 17.5t17.5 42.5v404h-60v-404zM233 144h-191
v-60h191v-191h60v191q0 25 -17.5 42.5t-42.5 17.5zM958 684v191h-59v-191q0 -25 17.5 -42.5t41.5 -17.5h191v60h-191zM794 405q0 117 -58 189t-153 72q-104 0 -166 -73.5t-62 -198.5q0 -117 58.5 -183.5t160.5 -66.5q86 0 140 42.5t72 123.5q-1 3 -3 7t-12.5 11t-26.5 7
q-19 0 -28.5 -6t-9.5 -12l-1 -7q-7 -41 -41.5 -68t-81.5 -27q-74 0 -108 47q-28 39 -33 113h352zM441 442q7 62 37 101q38 49 102 49t96 -43q30 -38 34 -107h-269z" />
    <glyph glyph-name="userstatistics" unicode="&#xe68f;" 
d="M511.5 801q-113.5 0 -209.5 -55.5t-152 -152t-56 -210t56 -209.5t152 -152t209.5 -56t209.5 56t152 152t56 209.5t-56 210t-152 152t-209.5 55.5zM632 435q-22 -46 -44 -94q-9 -18 -18 -35q-8 -17 -15 -32q-7 -14 -11.5 -24t-6.5 -12q-6 -9 -11 -15t-17 -5q-10 2 -15 8
q-5 5 -12 15q-4 5 -12.5 17.5t-16.5 26.5q-10 17 -22 36l-65 -138l-45 50q5 11 13 27.5t17 34.5l18 35q8 18 16 33q7 15 12 25q4 10 5 12q4 9 9.5 15.5t18.5 6.5q5 0 11 -6t10.5 -11.5t6.5 -8.5t-1 1l6 -8q3 -6 8 -14l10 -16q12 -20 28 -46l72 147l-68 23l155 95l24 -176z
" />
    <glyph glyph-name="gonggao" unicode="&#xe614;" 
d="M992 576h-223l-175 175q14 22 14 49q0 40 -28 68t-68 28t-68 -28t-28 -68q0 -27 14 -51l-174 -173h-224q-13 0 -22.5 -9.5t-9.5 -22.5v0v-640q0 -13 9.5 -22.5t22.5 -9.5h960q13 0 22.5 9.5t9.5 22.5v0v640v0q0 13 -9.5 22.5t-22.5 9.5v0zM480 709q15 -5 32 -5t33 6
l134 -134h-332zM128 384h320v-64h-320v64zM640 64h-512v64h512v-64zM832 192h-704v64h704v-64z" />
    <glyph glyph-name="userstatistics-copy" unicode="&#xe77c;" 
d="M511.5 801q-113.5 0 -209.5 -55.5t-152 -152t-56 -210t56 -209.5t152 -152t209.5 -56t209.5 56t152 152t56 209.5t-56 210t-152 152t-209.5 55.5zM632 435q-22 -46 -44 -94q-9 -18 -18 -35q-8 -17 -15 -32q-7 -14 -11.5 -24t-6.5 -12q-6 -9 -11 -15t-17 -5q-10 2 -15 8
q-5 5 -12 15q-4 5 -12.5 17.5t-16.5 26.5q-10 17 -22 36l-65 -138l-45 50q5 11 13 27.5t17 34.5l18 35q8 18 16 33q7 15 12 25q4 10 5 12q4 9 9.5 15.5t18.5 6.5q5 0 11 -6t10.5 -11.5t6.5 -8.5t-1 1l6 -8q3 -6 8 -14l10 -16q12 -20 28 -46l72 147l-68 23l155 95l24 -176z
" />
  </font>
</defs>
</svg>
